<?xml version="1.0" standalone="no"?>
<!DOCTYPE svg PUBLIC "-//W3C//DTD SVG 20010904//EN"
 "http://www.w3.org/TR/2001/REC-SVG-20010904/DTD/svg10.dtd">
<svg version="1.0" xmlns="http://www.w3.org/2000/svg"
 width="220.000000pt" height="230.000000pt" viewBox="0 0 220.000000 230.000000"
 preserveAspectRatio="xMidYMid meet">
<metadata>
Created by potrace 1.16, written by Peter Selinger 2001-2019
</metadata>
<g transform="translate(0.000000,230.000000) scale(0.100000,-0.100000)"
fill="#000000" stroke="none">
<path d="M306 2201 c-3 -5 -15 -53 -25 -107 -22 -110 -81 -382 -112 -516 -11
-49 -17 -92 -14 -98 4 -6 83 -10 206 -10 175 0 199 -2 199 -16 0 -8 -16 -91
-35 -182 -20 -92 -59 -273 -86 -402 -28 -129 -64 -300 -80 -380 -16 -80 -34
-161 -39 -181 -22 -80 -23 -79 99 -79 93 0 112 3 134 20 32 25 36 39 87 275
22 105 45 208 50 230 9 37 88 403 175 809 40 186 40 188 -25 185 -19 -1 -107
-1 -196 0 l-160 1 19 83 c11 45 21 88 23 95 3 9 161 12 750 12 771 0 804 2
840 41 18 20 50 188 41 213 -6 15 -85 16 -926 16 -530 0 -922 -4 -925 -9z"/>
<path d="M1098 1713 c-34 -36 -42 -57 -72 -200 -14 -65 -45 -210 -70 -323 -43
-201 -80 -377 -156 -750 -21 -102 -36 -188 -33 -192 2 -5 204 -8 449 -8 519 0
503 -2 527 82 32 109 168 732 163 745 -7 18 -424 18 -475 0 -43 -15 -66 -57
-82 -149 -16 -90 -13 -93 127 -101 59 -4 109 -9 111 -11 5 -5 -33 -174 -54
-239 -11 -34 -22 -51 -40 -58 -36 -14 -400 -12 -405 2 -2 6 9 75 25 153 36
179 156 746 162 766 3 9 18 23 34 33 24 14 74 17 345 23 284 7 320 9 340 25
26 20 42 73 52 167 l6 62 -464 0 -464 0 -26 -27z"/>
</g>
</svg>
